<?xml version="1.0" encoding="UTF-8"?>
<svg version="1.1" xmlns="http://www.w3.org/2000/svg" width="600" height="600">
<path d="M0 0 C2.65541164 2.31337108 5.27098876 4.65887995 7.859375 7.046875 C9.59341258 8.62902608 11.34699382 10.10946881 13.1875 11.5625 C16.86696619 14.75137069 19.89567255 18.25637691 23 22 C23.43618652 22.51852539 23.87237305 23.03705078 24.32177734 23.57128906 C30.13915964 30.51111643 35.5782294 37.5610319 40.375 45.25 C40.79346191 45.91523682 41.21192383 46.58047363 41.64306641 47.26586914 C43.49517734 50.27899928 45.05942083 53.1424472 46.42578125 56.41796875 C47.70102655 59.4698716 48.66216233 61.6526782 51 64 C54.73657147 64.83287768 58.1589732 64.87453243 61.984375 64.86328125 C74.04740538 64.94761777 84.47713382 71.96823764 93.0234375 79.87109375 C105.74240364 93.22878526 107.48178679 110.81629386 107.3984375 128.40625 C107.40046656 129.94454078 107.40338484 131.48283062 107.40713501 133.02111816 C107.41151936 136.22136735 107.40525468 139.42136273 107.39111328 142.62158203 C107.37402359 146.68252021 107.38388595 150.74286315 107.40183067 154.8037796 C107.41277494 157.97320885 107.40917401 161.14250161 107.4014473 164.31193542 C107.39947452 165.80755182 107.40179911 167.30318144 107.40888596 168.79878235 C107.47393538 186.37529337 104.75960148 202.84682147 92.1796875 215.97265625 C82.0459799 225.39809396 69.04038619 231.31961855 55 231 C53.32583938 230.70661441 51.65579767 230.38369643 50 230 C49.64808594 231.20076172 49.64808594 231.20076172 49.2890625 232.42578125 C39.89425996 258.47500646 20.73194754 281.10580292 -4.0078125 293.5078125 C-20.54870353 300.87402264 -37.00764561 300.45997987 -54.7734375 300.43359375 C-56.7869284 300.43607657 -58.80040952 300.44042497 -60.81389678 300.44494683 C-67.12288352 300.45890701 -73.43173455 300.45749812 -79.74072266 300.44604492 C-86.22686005 300.43452973 -92.71258558 300.4487153 -99.19866884 300.4754414 C-104.79736067 300.49763807 -110.39592353 300.50422813 -115.99465621 300.49836498 C-119.32598666 300.49500868 -122.65684133 300.49905286 -125.98817062 300.51461601 C-129.69734121 300.52951527 -133.40560369 300.51885785 -137.11474609 300.50170898 C-138.20477936 300.51137695 -139.29481262 300.52104492 -140.4178772 300.53100586 C-147.05705882 300.46682504 -151.34086036 299.54317638 -157 296 C-160.77842389 291.46439196 -160.56069177 287.04798004 -160.40625 281.359375 C-159.54187435 274.21165327 -156.65831778 268.94735204 -151 264.5 C-144.81929187 260.21337984 -139.51381561 259.6819983 -132.16796875 259.6640625 C-131.2173909 259.6574057 -130.26681305 259.6507489 -129.28742981 259.64389038 C-127.27944874 259.63378321 -125.27143421 259.62907276 -123.26342773 259.62939453 C-120.20825122 259.62502965 -117.15452976 259.58871221 -114.09960938 259.55078125 C-112.14323407 259.54491085 -110.18685195 259.54094295 -108.23046875 259.5390625 C-107.32499802 259.52469147 -106.41952728 259.51032043 -105.48661804 259.49551392 C-99.51516736 259.53803318 -94.91723934 260.47924513 -90 264 C-89.05806349 265.05050879 -88.13674034 266.11986973 -87.23706055 267.20678711 C-84.54489841 270.07653384 -82.52380209 270.47561172 -78.62817383 270.72875977 C-76.4878435 270.74803028 -74.3470328 270.73357993 -72.20703125 270.69140625 C-71.06521896 270.69003159 -69.92340668 270.68865692 -68.74699402 270.6872406 C-66.33375691 270.678192 -63.92053636 270.65458887 -61.50756836 270.61743164 C-57.84229308 270.56294291 -54.17930856 270.55590114 -50.51367188 270.55664062 C-48.16143896 270.54188137 -45.80922128 270.52439044 -43.45703125 270.50390625 C-41.83146049 270.49889854 -41.83146049 270.49889854 -40.17304993 270.49378967 C-23.26381865 270.18287191 -9.96667989 263.64998165 2.08984375 251.9765625 C27.67439464 224.72014987 40.67910758 181.9075835 40.1484375 145.23828125 C38.22193896 103.21019458 22.80879887 67.31738565 -5 36 C-5.58007812 35.34644531 -6.16015625 34.69289063 -6.7578125 34.01953125 C-16.22249512 24.00789461 -28.20343092 16.00461844 -40 9 C-40.87495117 8.48010498 -40.87495117 8.48010498 -41.76757812 7.94970703 C-77.72553559 -13.05866054 -121.8718265 -17.43688785 -161.86865234 -7.04980469 C-202.58101848 4.09314852 -237.41620515 30.99748058 -258.8125 67.3125 C-280.05115291 104.57155717 -285.24444893 148.5045743 -274.47265625 189.8671875 C-271.78358362 199.56530339 -268.18396192 208.8696535 -263.55078125 217.8046875 C-263.13795898 218.60108643 -262.72513672 219.39748535 -262.29980469 220.21801758 C-261.5012768 221.73109242 -260.68411008 223.23454417 -259.84472656 224.7253418 C-257.10820455 229.82506134 -256.14365893 234.21509759 -257 240 C-259.11005114 244.47330843 -261.73549203 247.08537038 -266.0703125 249.30859375 C-270.38258185 250.85367811 -274.32108558 250.63958645 -278.625 249 C-283.38606097 244.9906855 -286.54701751 240.46760261 -288.4375 234.5625 C-289.26117555 232.46563914 -289.26117555 232.46563914 -291 231 C-294.03428522 230.44115142 -296.93515378 230.26817936 -300.01635742 230.21557617 C-312.11042022 230.00181794 -322.60307075 224.82181101 -331.4765625 216.74609375 C-342.2363826 205.53644839 -347.09837074 192.05431687 -347.14526367 176.6628418 C-347.14862228 175.96587189 -347.1519809 175.26890198 -347.15544128 174.55081177 C-347.16487109 172.26692885 -347.16689038 169.98311988 -347.16796875 167.69921875 C-347.17118697 166.09650137 -347.17455146 164.49378428 -347.17805481 162.8910675 C-347.18402624 159.53812988 -347.18589677 156.18521795 -347.18530273 152.83227539 C-347.18520125 148.5590092 -347.19884815 144.28590968 -347.21607494 140.01268291 C-347.22725352 136.70361083 -347.22922015 133.39457829 -347.22869301 130.08548927 C-347.22986451 128.51120238 -347.23423909 126.93691418 -347.24202538 125.3626461 C-347.3214349 107.64898607 -344.77512828 92.28244384 -332 79 C-324.58254569 72.14487977 -315.87364895 67.24929115 -306 65 C-303.56127371 65.14764181 -301.1236604 65.31477978 -298.6875 65.5 C-293.59029367 65.27291751 -293.59029367 65.27291751 -289.53222656 62.46875 C-286.58544609 58.09596581 -284.48806319 53.26769364 -282.25976562 48.50292969 C-280.22219329 44.45463674 -277.69852122 40.80291522 -275.0625 37.125 C-274.31069458 36.0723999 -274.31069458 36.0723999 -273.54370117 34.99853516 C-269.51494809 29.48113478 -265.1057068 24.45205019 -260.39453125 19.51171875 C-258.43731032 17.45871213 -256.60787289 15.37969385 -254.8125 13.1875 C-243.55204644 -0.12287238 -227.19276201 -10.70835701 -212 -19 C-211.37303223 -19.34369629 -210.74606445 -19.68739258 -210.10009766 -20.04150391 C-143.60130194 -55.99911204 -58.36381274 -48.28279054 0 0 Z " fill="#4C4C4C" transform="translate(420,171)"/>
<path d="M0 0 C1.06734375 0.25249512 2.1346875 0.50499023 3.234375 0.76513672 C4.18401123 0.99217285 5.13364746 1.21920898 6.11206055 1.453125 C23.7232006 5.33461351 40.7777893 2.8968977 58.08740234 -1.25439453 C61.59872552 -2.09502267 65.12039036 -2.88316208 68.64550781 -3.66357422 C70.13697364 -3.99466336 71.62733407 -4.33079642 73.11621094 -4.67333984 C85.81776552 -7.57040145 98.34891874 -8.86252331 110.03515625 -2.24267578 C132.68505868 12.32295378 147.07748301 43.34571148 152.74658203 68.76367188 C158.33455966 96.23735563 157.98428602 129.30210291 143.65625 154.25341797 C140.56671126 158.91193876 137.56428691 161.40629155 132.16015625 162.75732422 C124.08714099 163.53357569 116.5654254 162.77910999 108.59765625 161.50732422 C107.49824707 161.33604004 106.39883789 161.16475586 105.26611328 160.98828125 C93.72127508 159.13470127 82.255734 156.86627853 70.79956055 154.5324707 C56.10976055 151.56349599 41.69794159 149.67312467 26.66015625 149.69482422 C25.97595612 149.69570038 25.29175598 149.69657654 24.58682251 149.69747925 C2.39839176 149.7897541 -19.11373955 154.04996062 -40.7512207 158.60717773 C-75.45272057 165.87579597 -75.45272057 165.87579597 -85.08984375 160.06982422 C-98.65499289 148.86133235 -101.89143937 128.16570363 -103.57421875 111.57104492 C-106.90321743 74.48391902 -95.2286941 38.75317848 -71.640625 10.10107422 C-70.79886719 9.10076172 -69.95710938 8.10044922 -69.08984375 7.06982422 C-68.18298828 5.97154297 -68.18298828 5.97154297 -67.2578125 4.85107422 C-49.56100839 -14.78333618 -21.87792604 -5.17748278 0 0 Z M-59.08984375 63.06982422 C-63.37058781 69.1558661 -64.81828371 74.66401791 -64.08984375 82.06982422 C-62.55293064 88.90778507 -58.96184655 94.51113231 -53.0859375 98.39404297 C-46.65017175 101.67524733 -39.845734 102.40247298 -32.859375 100.44482422 C-26.67515005 97.76539213 -21.86826307 92.69779963 -18.91796875 86.67919922 C-16.99729524 80.62726571 -17.03316325 73.52896447 -19.65234375 67.69482422 C-23.39373726 61.35816831 -29.10514784 57.23748847 -36.08984375 55.06982422 C-45.22163494 53.88087491 -52.58207569 56.56205616 -59.08984375 63.06982422 Z M73.06640625 65.22607422 C69.29341072 71.2424725 69.20746544 77.15102235 69.91015625 84.06982422 C71.68358058 90.71455336 76.35682095 95.24350381 81.91015625 99.06982422 C87.9516035 101.97399259 94.23653214 102.20138465 100.63671875 100.22998047 C107.96516359 96.94214343 112.02954577 92.25845664 115.28515625 85.00732422 C116.97472987 77.06632821 115.42556679 70.16901177 111.22265625 63.31982422 C105.9063078 58.14716086 100.23656927 55.05227208 92.78515625 54.69482422 C84.61635884 54.81594313 78.1027006 59.01854862 73.06640625 65.22607422 Z " fill="#4C4C4C" transform="translate(274.08984375,224.93017578125)"/>
</svg>
